<svg xmlns="http://www.w3.org/2000/svg" width="612" height="612" viewBox="26 -26 612 612"><path d="M148.9 309.5c3.5 11.5 7.1 23.3 9 35.3.7 4.9 3.6 40.3 5.2 59.7.6 7.5 6.3 13.5 13.6 14.6l25.8 3.9c3.7.6 6.7 3.4 7.4 7.1l3.4 17.4c1.5 7.6 8.1 13 15.8 13l200.2-.1c7.6 0 14.1-5.3 15.7-12.7l3.9-17.9c.9-3.5 3.8-6.2 7.4-6.7l31.4-4.6c7.6-1.1 13.3-7.3 13.8-15 1.2-20 3.5-56.4 4.2-61.4 1.7-11.8 5.1-23.4 8.5-34.8 4.7-15.9 9.6-32.2 9.6-49.2C523.8 149.4 437.4 61 331.2 61s-192.6 88.5-192.6 197.2c0 17.8 5.2 34.8 10.3 51.3zm207.4-10c1.2-30.9 28.9-38.6 59.8-37.4 30.9 1.2 53.2 11 52 41.8s-27.2 54.9-58.1 53.7c-30.9-1.2-54.9-27.3-53.7-58.1zM338.1 360l20 29.7c1.8 2.6 2 6 .6 8.9l-2.9 6c-1.5 3.1-4.6 5-8 5h-34.4c-3.4 0-6.5-2-8-5l-2.9-6c-1.4-2.9-1.1-6.2.6-8.9l20-29.7c3.8-5.2 11.5-5.2 15 0zm-91.8-98c30.9-1.2 58.6 6.5 59.8 37.4 1.2 30.9-22.8 56.9-53.7 58.1s-56.9-22.8-58.1-53.7c-1.2-30.8 21.1-40.5 52-41.8zM582.3 32.6c2.4-14.8-2.1-30.4-13.5-41.8-18.3-18.2-48.2-18.6-66.9-.7-19.6 18.7-19.8 49.6-.8 68.7l-17.5 17.5c-7 7-7 18.3 0 25.3l29.8 29.8c7 7 18.3 7 25.3 0l17.5-17.5c19 19 50 18.7 68.7-.8 17.8-18.7 17.5-48.6-.7-66.9-11.4-11.5-27.1-16-41.9-13.6zM107.8 113.9l17.5 17.5c7 7 18.3 7 25.3 0l29.8-29.8c7-7 7-18.3 0-25.3l-17.5-17.5c19-19 18.7-50-.8-68.7-18.7-17.8-48.6-17.5-66.9.7-11.4 11.4-15.9 27-13.5 41.8-14.8-2.4-30.4 2.1-41.8 13.5-18.2 18.3-18.6 48.2-.7 66.9 18.6 19.6 49.6 19.9 68.6.9zM624.8 447c-18.7-19.6-49.6-19.8-68.7-.8l-17.5-17.5c-7-7-18.3-7-25.3 0l-29.8 29.8c-7 7-7 18.3 0 25.3l17.5 17.5c-19 19-18.7 50 .8 68.7 18.7 17.8 48.6 17.5 66.9-.7 11.4-11.4 15.9-27 13.5-41.8 14.8 2.4 30.4-2.1 41.8-13.5 18.3-18.4 18.7-48.3.8-67zM81.7 527.4c-2.4 14.8 2.1 30.4 13.5 41.8 18.3 18.2 48.2 18.6 66.9.7 19.6-18.7 19.8-49.6.8-68.7l17.5-17.5c7-7 7-18.3 0-25.3l-29.8-29.8c-7-7-18.3-7-25.3 0l-17.5 17.5c-19-19-50-18.7-68.7.8-17.8 18.7-17.5 48.6.7 66.9 11.4 11.5 27.1 16 41.9 13.6z"/></svg>