<svg xmlns="http://www.w3.org/2000/svg" width="21.6" height="21.6" viewBox="-268 270.4 21.6 21.6"><path d="M-249.4 278.8l-.5-1.3s1.3-2.9 1.2-3l-1.7-1.6c-.1-.1-3 1.2-3 1.2l-1.3-.5s-1.2-2.9-1.3-2.9h-2.4c-.2 0-1.2 2.9-1.2 2.9l-1.3.5s-2.9-1.2-3-1.1l-1.7 1.6c-.1.1 1.2 2.9 1.2 2.9l-.5 1.3s-3 1.1-3 1.3v2.3c0 .2 3 1.2 3 1.2l.5 1.3s-1.3 2.9-1.2 3l1.7 1.6c.1.1 3-1.2 3-1.2l1.3.5s1.2 2.9 1.3 2.9h2.4c.2 0 1.2-2.9 1.2-2.9l1.3-.5s2.9 1.2 3 1.1l1.7-1.6c.1-.1-1.2-2.9-1.2-2.9l.5-1.3s3-1.1 3-1.3V280c0-.2-3-1.2-3-1.2zm-4.3 2.4c0 1.9-1.6 3.4-3.5 3.4s-3.5-1.5-3.5-3.4 1.6-3.4 3.5-3.4 3.5 1.5 3.5 3.4z"/></svg>