<svg xmlns="http://www.w3.org/2000/svg" width="247.7" height="247.7" viewBox="-155 157.3 247.7 247.7"><g fill="#001D41"><path d="M51.9 157.3H-80.2c-9.6 0-17.5 7.9-17.5 17.5v21h-16.5c-9.6 0-17.5 7.9-17.5 17.5v174.2c0 9.6 7.9 17.5 17.5 17.5H17.9c9.6 0 17.5-7.9 17.5-17.5v-21h16.5c9.6 0 17.5-7.9 17.5-17.5V174.8c0-9.7-7.9-17.5-17.5-17.5zM20.4 387.5c0 1.4-1.1 2.5-2.5 2.5h-132.1c-1.4 0-2.5-1.1-2.5-2.5V213.3c0-1.4 1.1-2.5 2.5-2.5H17.9c1.4 0 2.5 1.1 2.5 2.5v174.2zm34-38.5c0 1.4-1.1 2.5-2.5 2.5H35.4V213.3c0-9.7-7.9-17.5-17.5-17.5H-82.7v-21c0-1.4 1.1-2.5 2.5-2.5H51.9c1.4 0 2.5 1.1 2.5 2.5V349z"/><path d="M-5.4 234.4h-85.3c-4.1 0-7.5 3.4-7.5 7.5s3.4 7.5 7.5 7.5h85.3c4.1 0 7.5-3.4 7.5-7.5 0-4.2-3.4-7.5-7.5-7.5zM-5.4 268.2h-85.3c-4.1 0-7.5 3.4-7.5 7.5s3.4 7.5 7.5 7.5h85.3c4.1 0 7.5-3.4 7.5-7.5s-3.4-7.5-7.5-7.5zM-5.4 301.9h-85.3c-4.1 0-7.5 3.4-7.5 7.5s3.4 7.5 7.5 7.5h85.3c4.1 0 7.5-3.4 7.5-7.5s-3.4-7.5-7.5-7.5zM-5.4 335.7h-85.3c-4.1 0-7.5 3.4-7.5 7.5s3.4 7.5 7.5 7.5h85.3c4.1 0 7.5-3.4 7.5-7.5s-3.4-7.5-7.5-7.5z"/></g></svg>