<svg xmlns="http://www.w3.org/2000/svg" width="325.2" height="325.2" viewBox="-116 118.8 325.2 325.2"><path d="M179.4 312.7c-2.7-6.5-7.7-11.6-14-14.4-1.1-.5-1.8-1.7-1.6-2.9.4-2.7.3-5.4-.2-8-2.4-13.3-14.4-22.2-26.8-20-12.4 2.2-20.6 14.8-18.3 28 .6 3.4 1.8 6.5 3.6 9.4.4.7.5 1.5.3 2.2-.2.8-.7 1.4-1.5 1.7l-18.2 9.1c-.6 5.6-1.9 11.2-4.6 16.5C85.9 357.8 53.8 359 47.5 359h-1.8c-6.3 0-38.4-1.2-50.6-24.7-2.8-5.3-4-10.9-4.6-16.5l-18.2-9.1c-.7-.3-1.2-1-1.5-1.7-.2-.8-.1-1.6.3-2.2 1.8-2.8 3-6 3.6-9.4 2.4-13.3-5.8-25.8-18.3-28.1-12.4-2.2-24.5 6.8-26.8 20-.5 2.7-.5 5.3-.2 8 .2 1.2-.5 2.4-1.6 2.9-6.3 2.7-11.3 7.8-14 14.4-2.7 6.4-2.9 13.4-.6 19.8 2.4 6.4 7 11.4 13.1 13.9 1.6.7 3.3 1.2 4.9 1.5 11.2 2 22.8-4.6 27.7-15.7.3-.7.9-1.2 1.6-1.5.7-.3 1.5-.2 2.2.1l57 28.4-43.9 21.9c-.7.3-1.5.4-2.2.1-.7-.3-1.3-.8-1.6-1.5l-.2-.4c-4.8-11.4-16.5-18.1-27.9-16.1-1.7.3-3.4.8-4.9 1.5-6 2.5-10.7 7.4-13 13.7-2.4 6.4-2.2 13.5.5 20s7.7 11.6 14 14.4c1.1.5 1.8 1.7 1.6 2.9-.4 2.7-.3 5.4.2 8 2.4 13.3 14.4 22.2 26.8 20 12.4-2.2 20.6-14.8 18.3-28.1-.5-3.1-1.6-5.9-3.2-8.6-.4-.7-.5-1.5-.3-2.2.2-.7.7-1.4 1.4-1.7l61.1-30.5 61.1 30.5c.7.3 1.2 1 1.4 1.7.2.7.1 1.5-.3 2.2-1.6 2.7-2.6 5.5-3.2 8.6-2.4 13.3 5.8 25.8 18.3 28.1 12.4 2.2 24.5-6.8 26.8-20 .5-2.7.5-5.3.2-8-.2-1.2.5-2.4 1.6-2.9 6.3-2.7 11.3-7.9 14-14.4 2.7-6.5 2.9-13.6.5-20-2.4-6.3-7-11.2-13-13.7-1.6-.7-3.3-1.2-4.9-1.5-11.4-2-23.1 4.7-27.9 16.1l-.2.4c-.3.7-.9 1.3-1.6 1.5-.7.3-1.5.2-2.2-.1l-43.9-21.9 57-28.4c.7-.3 1.5-.4 2.2-.1.7.3 1.3.8 1.6 1.5 4.9 11.1 16.5 17.7 27.7 15.7 1.7-.3 3.4-.8 4.9-1.5 6.1-2.6 10.7-7.5 13.1-13.9 2.7-6.3 2.5-13.3-.2-19.7z"/><path d="M-11.1 276.4l.3.3.2.3c6.3 9.2 6.8 19.7 7.3 29.9.4 8.7.8 16.9 4.6 24.1 10.3 20 38.8 21 44.4 21h1.8c5.6 0 34-1 44.3-20.9 3.8-7.3 4.2-15.5 4.6-24.1.5-10.2 1-20.6 7.3-29.9l.2-.3.3-.3c8-7.4 15.2-15.7 21.4-24.6 10.1-19.2 14.2-46.8 10.2-68.8-8-44.4-35.6-64.2-89.3-64.2s-81.3 19.8-89.3 64.2c-4 22 .1 49.7 10.2 68.8 6.3 8.9 13.5 17.2 21.5 24.5zm68.4-51.9c4.7-11 19.9-15.1 33.9-9.2 14 6 21.6 19.7 16.9 30.8-4.7 11-19.9 15.1-33.9 9.2-14-6-21.6-19.8-16.9-30.8zm8.4 66.9c0 12.6-8.6 12.3-19.1 12.3-10.6 0-19.1.4-19.1-12.3 0-12.6 19.1-33.4 19.1-33.4s19.1 20.8 19.1 33.4zM2 215.3c14-6 29.2-1.8 33.9 9.2 4.7 11-2.9 24.8-16.9 30.8-14 6-29.2 1.8-33.9-9.2C-19.6 235-12 221.2 2 215.3z"/></svg>