<svg xmlns="http://www.w3.org/2000/svg" width="31.9" height="31.9" viewBox="-263 265.1 31.9 31.9"><path d="M-254.7 271.5c-1.6 0-2.8 1.3-2.8 2.8v19.8c0 1.6 1.3 2.8 2.8 2.8h15.3c1.6 0 2.8-1.3 2.8-2.8v-19.8c0-1.6-1.3-2.8-2.8-2.8h-15.3zm14.9 19.5c0 .9-.7 1.6-1.6 1.6h-11.2c-.9 0-1.6-.7-1.6-1.6v-13.3c0-.9.7-1.6 1.6-1.6h11.2c.9 0 1.6.7 1.6 1.6V291z"/><path d="M-250.7 286.9l.6-1.2v2.9c0 .3.2.7.5.8.6.3 1.6.6 2.9.6 1.2 0 2.1-.3 2.7-.6.4-.2.6-.6.6-1v-2.8.1l.6 1.1c1-.9 1.6-2.2 1.6-3.6 0-2.8-2.5-5.1-5.7-5.1-3.1 0-5.7 2.3-5.7 5.1.2 1.5.9 2.8 1.9 3.7zm4.7-3c0-.2.2-.3.3-.3h2c.2 0 .3.1.3.3 0 .9-.6 1.6-1.3 1.6-.7 0-1.3-.7-1.3-1.6zm-.7 1.5c.1 0 .2 0 .3.1l.8.9-.4.3-.4-.2c-.1-.1-.3-.1-.4 0l-.4.2-.4-.3.8-.9c-.1-.1 0-.1.1-.1zm-3.2-1.5c0-.2.1-.3.3-.3h2c.2 0 .4.1.4.3 0 .9-.6 1.6-1.3 1.6-.8 0-1.4-.7-1.4-1.6zM-242 266.7c0-.9-.7-1.6-1.6-1.6h-6.7c-.9 0-1.6.7-1.6 1.6v3.8h10l-.1-3.8z"/></svg>