<svg xmlns="http://www.w3.org/2000/svg" xmlns:xlink="http://www.w3.org/1999/xlink" width="32" height="32" viewBox="0 0 32 32">
	<path fill="#111" d="M20.8,15.9L31.6,5.1c0.3-0.3,0.3-0.7,0-0.9l-4-4C27.5,0.1,27.3,0,27.1,0c-0.2,0-0.3,0.1-0.5,0.2L15.9,11 L5.1,0.2c-0.2-0.2-0.7-0.2-0.9,0l-4,4c-0.3,0.3-0.3,0.7,0,0.9L11,15.9L0.2,26.7c-0.3,0.3-0.3,0.7,0,0.9l4,4 c0.1,0.1,0.3,0.2,0.5,0.2c0.2,0,0.3-0.1,0.5-0.2l10.8-10.8l10.8,10.8c0.1,0.1,0.3,0.2,0.5,0.2c0.2,0,0.3-0.1,0.5-0.2l4-4 c0.3-0.3,0.3-0.7,0-0.9L20.8,15.9z"/>
</svg>