<svg xmlns="http://www.w3.org/2000/svg" xmlns:xlink="http://www.w3.org/1999/xlink" width="21.6" height="21.6" viewBox="-268 270.4 21.6 21.6">
	<path d="M-249.4,278.8l-0.5-1.3c0,0,1.3-2.9,1.2-3l-1.7-1.6c-0.1-0.1-3,1.2-3,1.2l-1.3-0.5c0,0-1.2-2.9-1.3-2.9h-2.4 c-0.2,0-1.2,2.9-1.2,2.9l-1.3,0.5c0,0-2.9-1.2-3-1.1l-1.7,1.6c-0.1,0.1,1.2,2.9,1.2,2.9l-0.5,1.3c0,0-3,1.1-3,1.3v2.3 c0,0.2,3,1.2,3,1.2l0.5,1.3c0,0-1.3,2.9-1.2,3l1.7,1.6c0.1,0.1,3-1.2,3-1.2l1.3,0.5c0,0,1.2,2.9,1.3,2.9h2.4c0.2,0,1.2-2.9,1.2-2.9 l1.3-0.5c0,0,2.9,1.2,3,1.1l1.7-1.6c0.1-0.1-1.2-2.9-1.2-2.9l0.5-1.3c0,0,3-1.1,3-1.3V280C-246.4,279.8-249.4,278.8-249.4,278.8z M-253.7,281.2c0,1.9-1.6,3.4-3.5,3.4c-1.9,0-3.5-1.5-3.5-3.4s1.6-3.4,3.5-3.4C-255.3,277.8-253.7,279.3-253.7,281.2z"/>
</svg>