<?xml version="1.0" encoding="utf-8"?>
<!-- Generator: Adobe Illustrator 19.1.0, SVG Export Plug-In . SVG Version: 6.00 Build 0)  -->
<svg version="1.1" id="Capa_1" xmlns="http://www.w3.org/2000/svg" xmlns:xlink="http://www.w3.org/1999/xlink" x="0px" y="0px"
	 width="612px" height="612px" viewBox="26 -26 612 612" enable-background="new 26 -26 612 612" xml:space="preserve">
<g>
	<g>
		<path d="M148.9,309.5c3.5,11.5,7.1,23.3,9,35.3c0.7,4.9,3.6,40.3,5.2,59.7c0.6,7.5,6.3,13.5,13.6,14.6l25.8,3.9
			c3.7,0.6,6.7,3.4,7.4,7.1l3.4,17.4c1.5,7.6,8.1,13,15.8,13l200.2-0.1c7.6,0,14.1-5.3,15.7-12.7l3.9-17.9c0.9-3.5,3.8-6.2,7.4-6.7
			l31.4-4.6c7.6-1.1,13.3-7.3,13.8-15c1.2-20,3.5-56.4,4.2-61.4c1.7-11.8,5.1-23.4,8.5-34.8c4.7-15.9,9.6-32.2,9.6-49.2
			C523.8,149.4,437.4,61,331.2,61s-192.6,88.5-192.6,197.2C138.6,276,143.8,293,148.9,309.5z M356.3,299.5
			c1.2-30.9,28.9-38.6,59.8-37.4c30.9,1.2,53.2,11,52,41.8s-27.2,54.9-58.1,53.7C379.1,356.4,355.1,330.3,356.3,299.5z M338.1,360
			l20,29.7c1.8,2.6,2,6,0.6,8.9l-2.9,6c-1.5,3.1-4.6,5-8,5h-17.2h-17.2c-3.4,0-6.5-2-8-5l-2.9-6c-1.4-2.9-1.1-6.2,0.6-8.9l20-29.7
			C326.9,354.8,334.6,354.8,338.1,360z M246.3,262c30.9-1.2,58.6,6.5,59.8,37.4c1.2,30.9-22.8,56.9-53.7,58.1s-56.9-22.8-58.1-53.7
			C193.1,273,215.4,263.3,246.3,262z"/>
		<path d="M582.3,32.6c2.4-14.8-2.1-30.4-13.5-41.8c-18.3-18.2-48.2-18.6-66.9-0.7c-19.6,18.7-19.8,49.6-0.8,68.7l-17.5,17.5
			c-7,7-7,18.3,0,25.3l29.8,29.8c7,7,18.3,7,25.3,0l17.5-17.5c19,19,50,18.7,68.7-0.8c17.8-18.7,17.5-48.6-0.7-66.9
			C612.8,34.7,597.1,30.2,582.3,32.6z"/>
		<path d="M107.8,113.9l17.5,17.5c7,7,18.3,7,25.3,0l29.8-29.8c7-7,7-18.3,0-25.3l-17.5-17.5c19-19,18.7-50-0.8-68.7
			c-18.7-17.8-48.6-17.5-66.9,0.7c-11.4,11.4-15.9,27-13.5,41.8c-14.8-2.4-30.4,2.1-41.8,13.5C21.7,64.4,21.3,94.3,39.2,113
			C57.8,132.6,88.8,132.9,107.8,113.9z"/>
		<path d="M624.8,447c-18.7-19.6-49.6-19.8-68.7-0.8l-17.5-17.5c-7-7-18.3-7-25.3,0l-29.8,29.8c-7,7-7,18.3,0,25.3l17.5,17.5
			c-19,19-18.7,50,0.8,68.7c18.7,17.8,48.6,17.5,66.9-0.7c11.4-11.4,15.9-27,13.5-41.8c14.8,2.4,30.4-2.1,41.8-13.5
			C642.3,495.6,642.7,465.7,624.8,447z"/>
		<path d="M81.7,527.4c-2.4,14.8,2.1,30.4,13.5,41.8c18.3,18.2,48.2,18.6,66.9,0.7c19.6-18.7,19.8-49.6,0.8-68.7l17.5-17.5
			c7-7,7-18.3,0-25.3l-29.8-29.8c-7-7-18.3-7-25.3,0l-17.5,17.5c-19-19-50-18.7-68.7,0.8c-17.8,18.7-17.5,48.6,0.7,66.9
			C51.2,525.3,66.9,529.8,81.7,527.4z"/>
	</g>
</g>
</svg>
