<svg xmlns="http://www.w3.org/2000/svg" xmlns:xlink="http://www.w3.org/1999/xlink" width="325.2" height="325.2" viewBox="-116 118.8 325.2 325.2" >
	<path fill="#000" d="M179.4,312.7c-2.7-6.5-7.7-11.6-14-14.4c-1.1-0.5-1.8-1.7-1.6-2.9c0.4-2.7,0.3-5.4-0.2-8c-2.4-13.3-14.4-22.2-26.8-20 c-12.4,2.2-20.6,14.8-18.3,28c0.6,3.4,1.8,6.5,3.6,9.4c0.4,0.7,0.5,1.5,0.3,2.2c-0.2,0.8-0.7,1.4-1.5,1.7l-18.2,9.1 c-0.6,5.6-1.9,11.2-4.6,16.5c-12.2,23.5-44.3,24.7-50.6,24.7h0c-0.5,0-0.8,0-0.9,0c-0.2,0-0.5,0-0.9,0c-6.3,0-38.4-1.2-50.6-24.7 c-2.8-5.3-4-10.9-4.6-16.5l-18.2-9.1c-0.7-0.3-1.2-1-1.5-1.7c-0.2-0.8-0.1-1.6,0.3-2.2c1.8-2.8,3-6,3.6-9.4 c2.4-13.3-5.8-25.8-18.3-28.1c-12.4-2.2-24.5,6.8-26.8,20c-0.5,2.7-0.5,5.3-0.2,8c0.2,1.2-0.5,2.4-1.6,2.9 c-6.3,2.7-11.3,7.8-14,14.4c-2.7,6.4-2.9,13.4-0.6,19.8c2.4,6.4,7,11.4,13.1,13.9c1.6,0.7,3.3,1.2,4.9,1.5 c11.2,2,22.8-4.6,27.7-15.7c0.3-0.7,0.9-1.2,1.6-1.5c0.7-0.3,1.5-0.2,2.2,0.1l57,28.4l-43.9,21.9c-0.7,0.3-1.5,0.4-2.2,0.1 c-0.7-0.3-1.3-0.8-1.6-1.5l-0.2-0.4c-4.8-11.4-16.5-18.1-27.9-16.1c-1.7,0.3-3.4,0.8-4.9,1.5c-6,2.5-10.7,7.4-13,13.7 c-2.4,6.4-2.2,13.5,0.5,20c2.7,6.5,7.7,11.6,14,14.4c1.1,0.5,1.8,1.7,1.6,2.9c-0.4,2.7-0.3,5.4,0.2,8c2.4,13.3,14.4,22.2,26.8,20 c12.4-2.2,20.6-14.8,18.3-28.1c-0.5-3.1-1.6-5.9-3.2-8.6c-0.4-0.7-0.5-1.5-0.3-2.2c0.2-0.7,0.7-1.4,1.4-1.7l61.1-30.5l61.1,30.5 c0.7,0.3,1.2,1,1.4,1.7c0.2,0.7,0.1,1.5-0.3,2.2c-1.6,2.7-2.6,5.5-3.2,8.6c-2.4,13.3,5.8,25.8,18.3,28.1c12.4,2.2,24.5-6.8,26.8-20 c0.5-2.7,0.5-5.3,0.2-8c-0.2-1.2,0.5-2.4,1.6-2.9c6.3-2.7,11.3-7.9,14-14.4c2.7-6.5,2.9-13.6,0.5-20c-2.4-6.3-7-11.2-13-13.7 c-1.6-0.7-3.3-1.2-4.9-1.5c-11.4-2-23.1,4.7-27.9,16.1l-0.2,0.4c-0.3,0.7-0.9,1.3-1.6,1.5c-0.7,0.3-1.5,0.2-2.2-0.1l-43.9-21.9 l57-28.4c0.7-0.3,1.5-0.4,2.2-0.1c0.7,0.3,1.3,0.8,1.6,1.5c4.9,11.1,16.5,17.7,27.7,15.7c1.7-0.3,3.4-0.8,4.9-1.5 c6.1-2.6,10.7-7.5,13.1-13.9C182.3,326.1,182.1,319.1,179.4,312.7z"/>
	<path fill="#000" d="M-11.1,276.4l0.3,0.3l0.2,0.3c6.3,9.2,6.8,19.7,7.3,29.9c0.4,8.7,0.8,16.9,4.6,24.1C11.6,351,40.1,352,45.7,352 c0.5,0,0.8,0,0.8,0l0.1,0l0.1,0c0,0,0.3,0,0.8,0c5.6,0,34-1,44.3-20.9c3.8-7.3,4.2-15.5,4.6-24.1c0.5-10.2,1-20.6,7.3-29.9l0.2-0.3 l0.3-0.3c8-7.4,15.2-15.7,21.4-24.6c10.1-19.2,14.2-46.8,10.2-68.8c-8-44.4-35.6-64.2-89.3-64.2s-81.3,19.8-89.3,64.2 c-4,22,0.1,49.7,10.2,68.8C-26.3,260.8-19.1,269.1-11.1,276.4z M57.3,224.5c4.7-11,19.9-15.1,33.9-9.2c14,6,21.6,19.7,16.9,30.8 c-4.7,11-19.9,15.1-33.9,9.2C60.2,249.3,52.6,235.5,57.3,224.5z M65.7,291.4c0,12.6-8.6,12.3-19.1,12.3c-10.6,0-19.1,0.4-19.1-12.3 c0-12.6,19.1-33.4,19.1-33.4S65.7,278.8,65.7,291.4z M2,215.3c14-6,29.2-1.8,33.9,9.2c4.7,11-2.9,24.8-16.9,30.8 c-14,6-29.2,1.8-33.9-9.2C-19.6,235-12,221.2,2,215.3z"/>
</svg>