<?xml version="1.0" encoding="utf-8"?>
<!-- Generator: Adobe Illustrator 19.1.0, SVG Export Plug-In . SVG Version: 6.00 Build 0)  -->
<svg version="1.1" id="Capa_1" xmlns="http://www.w3.org/2000/svg" xmlns:xlink="http://www.w3.org/1999/xlink" x="0px" y="0px"
	 width="31.9px" height="31.9px" viewBox="-263 265.1 31.9 31.9" enable-background="new -263 265.1 31.9 31.9"
	 xml:space="preserve">
<g>
	<g>
		<path d="M-254.7,271.5c-1.6,0-2.8,1.3-2.8,2.8v19.8c0,1.6,1.3,2.8,2.8,2.8h15.3c1.6,0,2.8-1.3,2.8-2.8v-19.8
			c0-1.6-1.3-2.8-2.8-2.8C-239.4,271.5-254.7,271.5-254.7,271.5z M-239.8,291c0,0.9-0.7,1.6-1.6,1.6h-11.2c-0.9,0-1.6-0.7-1.6-1.6
			v-13.3c0-0.9,0.7-1.6,1.6-1.6h11.2c0.9,0,1.6,0.7,1.6,1.6L-239.8,291L-239.8,291z"/>
		<path d="M-250.7,286.9l0.6-1.2v2.9c0,0.3,0.2,0.7,0.5,0.8c0.6,0.3,1.6,0.6,2.9,0.6c1.2,0,2.1-0.3,2.7-0.6c0.4-0.2,0.6-0.6,0.6-1
			v-2.8l0,0.1l0.6,1.1c1-0.9,1.6-2.2,1.6-3.6c0-2.8-2.5-5.1-5.7-5.1c-3.1,0-5.7,2.3-5.7,5.1C-252.4,284.7-251.7,286-250.7,286.9z
			 M-246,283.9c0-0.2,0.2-0.3,0.3-0.3h2c0.2,0,0.3,0.1,0.3,0.3v0c0,0.9-0.6,1.6-1.3,1.6C-245.4,285.5-246,284.8-246,283.9
			L-246,283.9z M-246.7,285.4c0.1,0,0.2,0,0.3,0.1l0.8,0.9l-0.4,0.3l-0.4-0.2c-0.1-0.1-0.3-0.1-0.4,0l-0.4,0.2l-0.4-0.3l0.8-0.9
			C-246.9,285.4-246.8,285.4-246.7,285.4z M-249.9,283.9c0-0.2,0.1-0.3,0.3-0.3h2c0.2,0,0.4,0.1,0.4,0.3l0,0c0,0.9-0.6,1.6-1.3,1.6
			C-249.3,285.5-249.9,284.8-249.9,283.9L-249.9,283.9L-249.9,283.9z"/>
		<path d="M-242,266.7c0-0.9-0.7-1.6-1.6-1.6h-6.7c-0.9,0-1.6,0.7-1.6,1.6v3.8h10L-242,266.7L-242,266.7z"/>
	</g>
</g>
</svg>
